<svg width="362" height="236" viewBox="0 0 362 236" fill="none" xmlns="http://www.w3.org/2000/svg">
<path fill-rule="evenodd" clip-rule="evenodd" d="M225.505 92.7671C225.505 119.364 203.852 141.016 177.063 141.016C150.36 141.016 128.621 119.449 128.621 92.7671C128.621 66.1703 150.275 44.5178 177.063 44.5178C203.766 44.5178 225.505 66.0851 225.505 92.7671Z" fill="#21317D"/>
<path d="M133.671 92.7671C133.671 116.636 153.099 135.987 177.063 135.987C201.027 135.987 220.455 116.636 220.455 92.7671C220.455 68.8982 201.027 49.5473 177.063 49.5473C153.099 49.462 133.671 68.8982 133.671 92.7671Z" fill="url(#paint0_radial)"/>
<path d="M52.9486 185.794L52.9485 185.794L52.9583 185.801C54.5409 186.913 56.4524 187.462 58.3853 187.36C59.6024 187.346 60.8102 187.147 61.9676 186.772C62.1271 186.754 62.2822 186.706 62.4247 186.631L62.192 186.189L62.4247 186.631C62.5886 186.545 62.7323 186.425 62.8459 186.278C62.9595 186.132 63.0404 185.963 63.0831 185.783C63.1241 185.609 63.1289 185.429 63.0971 185.254L62.6407 181.46C62.6163 181.086 62.4768 180.744 62.1559 180.521C61.8633 180.317 61.4985 180.271 61.1608 180.271H61.0937L61.0289 180.288C60.6392 180.395 60.2353 180.441 59.8315 180.424L59.8212 180.424H59.811C59.362 180.424 59.1198 180.304 58.9805 180.151C58.8328 179.989 58.7157 179.696 58.7157 179.179V153.014C58.7157 152.652 58.6303 152.284 58.3671 152.008C58.0994 151.726 57.7316 151.627 57.3567 151.627H52.2298C52.0453 151.609 51.8589 151.63 51.6833 151.691C51.4967 151.755 51.3272 151.86 51.1876 152C51.0479 152.139 50.9419 152.308 50.8777 152.495C50.8172 152.67 50.7952 152.857 50.8131 153.041V181.374C50.7835 182.226 50.9617 183.074 51.3324 183.842L51.7816 183.626L51.3324 183.842C51.7044 184.614 52.2592 185.284 52.9486 185.794Z" fill="white" stroke="#0E3278"/>
<path d="M87.6779 183.972L87.8599 183.822V183.754C90.0854 181.365 91.3252 178.223 91.3252 174.956C91.3252 171.622 90.0335 168.417 87.7204 166.01L87.6997 165.989L87.6766 165.97C84.9923 163.773 81.628 162.573 78.1565 162.573C74.6849 162.573 71.3206 163.773 68.6364 165.97L68.6164 165.986L68.5982 166.004C66.2291 168.39 64.8998 171.613 64.8998 174.971C64.8998 178.33 66.2291 181.553 68.5982 183.938L68.6158 183.956L68.635 183.972C71.3144 186.18 74.6812 187.388 78.1565 187.388C81.6317 187.388 84.9985 186.18 87.6779 183.972ZM78.1871 180.734C76.6992 180.734 75.2643 180.186 74.1575 179.195C73.1615 178.042 72.6134 176.57 72.6134 175.048C72.6134 173.525 73.1615 172.054 74.1575 170.9C75.2643 169.91 76.6992 169.362 78.1871 169.362C79.675 169.362 81.11 169.91 82.2168 170.9C83.2128 172.054 83.7609 173.525 83.7609 175.048C83.7609 176.57 83.2128 178.042 82.2168 179.195C81.11 180.186 79.675 180.734 78.1871 180.734Z" fill="white" stroke="#0E3278"/>
<path d="M119.204 163.347L119.201 163.347L114.128 163.378C113.945 163.366 113.761 163.393 113.588 163.458C113.408 163.525 113.245 163.632 113.111 163.77C112.977 163.909 112.876 164.075 112.814 164.258C112.807 164.28 112.8 164.303 112.793 164.326C110.987 163.179 108.874 162.59 106.72 162.643C105.059 162.586 103.403 162.86 101.849 163.45C100.291 164.041 98.8663 164.938 97.6603 166.087L97.6531 166.093L97.6462 166.101C95.3441 168.476 94.0571 171.651 94.0571 174.956C94.0571 178.261 95.3441 181.436 97.6462 183.812L97.6519 183.817L97.6579 183.823C98.8584 184.983 100.281 185.888 101.841 186.486C103.396 187.081 105.055 187.358 106.72 187.3C108.795 187.355 110.835 186.812 112.599 185.744V186.738V186.749L112.599 186.76C112.627 187.394 112.526 188.027 112.302 188.622C112.08 189.21 111.742 189.749 111.308 190.205C110.827 190.64 110.264 190.976 109.653 191.193C109.036 191.413 108.381 191.508 107.727 191.472L107.708 191.471L107.689 191.471C106.58 191.493 105.483 191.24 104.497 190.733C103.736 190.322 103.155 189.645 102.863 188.833L102.859 188.823L102.855 188.813C102.736 188.522 102.534 188.271 102.276 188.091C102.017 187.911 101.712 187.81 101.397 187.799L101.388 187.799H101.38H96.2259C95.8088 187.799 95.3558 187.855 95.0939 188.223C94.9718 188.394 94.9311 188.583 94.9138 188.732C94.8975 188.873 94.8975 189.03 94.8976 189.17L94.8976 189.186V189.229L94.9048 189.271C95.13 190.579 95.6224 191.827 96.3514 192.938C97.0804 194.048 98.0305 194.997 99.1424 195.725L99.1449 195.727C101.695 197.376 104.691 198.205 107.728 198.102C111.104 198.246 114.41 197.11 116.981 194.923L116.982 194.923L116.987 194.918C118.16 193.893 119.09 192.62 119.708 191.191C120.326 189.765 120.618 188.22 120.563 186.668V164.735C120.563 164.373 120.477 164.005 120.214 163.728C119.947 163.447 119.579 163.347 119.204 163.347ZM107.316 180.852L107.301 180.852L107.286 180.852C106.559 180.873 105.836 180.737 105.166 180.454C104.498 180.171 103.899 179.748 103.409 179.213C102.395 178.049 101.859 176.545 101.91 175.003L101.911 174.985L101.91 174.967C101.848 173.411 102.396 171.892 103.438 170.732C103.926 170.195 104.526 169.77 105.195 169.486C105.865 169.203 106.588 169.068 107.316 169.09L107.332 169.091L107.348 169.09C108.058 169.067 108.765 169.199 109.419 169.477C110.067 169.753 110.647 170.166 111.12 170.687C112.065 171.91 112.577 173.412 112.577 174.956C112.577 176.501 112.064 178.003 111.119 179.226C110.644 179.755 110.06 180.175 109.406 180.456C108.747 180.739 108.034 180.874 107.316 180.852Z" fill="white" stroke="#0E3278"/>
<path d="M146.855 183.973L147.038 183.823V183.754C149.264 181.365 150.503 178.223 150.503 174.956C150.503 171.622 149.212 168.417 146.899 166.01L146.878 165.988L146.854 165.969C144.167 163.778 140.804 162.582 137.335 162.582C133.865 162.582 130.502 163.778 127.815 165.969L127.792 165.988L127.77 166.01C125.456 168.422 124.163 171.632 124.163 174.971C124.163 178.311 125.456 181.521 127.77 183.932L127.791 183.954L127.815 183.973C130.499 186.17 133.863 187.37 137.335 187.37C140.806 187.37 144.171 186.17 146.855 183.973ZM137.378 180.73L137.364 180.729L137.35 180.73C136.605 180.753 135.862 180.628 135.165 180.362C134.477 180.1 133.847 179.706 133.311 179.202C132.329 178.04 131.79 176.568 131.79 175.048C131.79 173.528 132.329 172.056 133.311 170.894C133.847 170.39 134.477 169.996 135.165 169.733C135.862 169.468 136.605 169.343 137.35 169.366L137.364 169.366L137.378 169.366C138.119 169.347 138.856 169.474 139.548 169.739C140.231 170.001 140.856 170.393 141.389 170.894C142.371 172.056 142.91 173.528 142.91 175.048C142.91 176.568 142.371 178.039 141.389 179.202C140.856 179.702 140.231 180.095 139.548 180.357C138.856 180.622 138.119 180.749 137.378 180.73Z" fill="white" stroke="#0E3278"/>
<path d="M161.408 159.022L161.415 159.015L161.422 159.009C161.84 158.616 162.172 158.142 162.399 157.617C162.627 157.091 162.744 156.524 162.744 155.952C162.744 155.379 162.627 154.813 162.399 154.287L161.94 154.485L162.399 154.287C162.172 153.761 161.84 153.288 161.422 152.895L161.412 152.885L161.402 152.876C160.492 152.11 159.34 151.69 158.15 151.69C156.959 151.69 155.807 152.11 154.898 152.876L154.887 152.885L154.877 152.895C154.46 153.288 154.128 153.761 153.9 154.287C153.673 154.813 153.556 155.379 153.556 155.952C153.556 156.524 153.673 157.091 153.9 157.617C154.128 158.142 154.46 158.616 154.877 159.009L154.884 159.015L154.891 159.022C155.793 159.809 156.951 160.243 158.15 160.243C159.348 160.243 160.506 159.809 161.408 159.022ZM156.298 185.789L156.306 185.796L156.315 185.802C157.901 186.905 159.808 187.453 161.738 187.36C162.966 187.348 164.185 187.149 165.353 186.772C165.512 186.754 165.667 186.706 165.81 186.631C165.974 186.545 166.118 186.425 166.231 186.278C166.345 186.132 166.426 185.963 166.468 185.783C166.509 185.609 166.514 185.429 166.482 185.254L166.026 181.46C166.002 181.086 165.862 180.744 165.541 180.521C165.249 180.317 164.884 180.271 164.546 180.271H164.482L164.419 180.287C164.016 180.393 163.6 180.439 163.184 180.424L163.175 180.424H163.166C162.736 180.424 162.501 180.306 162.364 180.154C162.218 179.991 162.101 179.696 162.101 179.179V164.735C162.101 164.373 162.016 164.005 161.752 163.728C161.485 163.447 161.117 163.347 160.742 163.347H155.615C155.431 163.329 155.244 163.351 155.069 163.412C154.882 163.475 154.713 163.581 154.573 163.72C154.433 163.86 154.327 164.029 154.263 164.215C154.203 164.391 154.181 164.577 154.198 164.762V181.374C154.171 182.222 154.346 183.065 154.71 183.832C155.075 184.601 155.619 185.273 156.298 185.789Z" fill="white" stroke="#0E3278"/>
<path d="M194.086 166.077L194.076 166.066L194.066 166.056C192.851 164.9 191.416 164 189.847 163.409C188.282 162.82 186.614 162.549 184.943 162.613C183.475 162.583 182.016 162.851 180.655 163.401C179.49 163.871 178.416 164.54 177.483 165.376C176.934 164.539 176.186 163.846 175.303 163.359C174.235 162.77 173.016 162.51 171.8 162.613C170.623 162.594 169.454 162.789 168.347 163.189C168.029 163.285 167.753 163.485 167.562 163.758C167.372 164.03 167.279 164.358 167.298 164.69V168.285C167.298 168.658 167.435 169.007 167.758 169.24C168.05 169.452 168.427 169.519 168.81 169.519H169.823H169.859L169.895 169.514C170.064 169.489 170.237 169.504 170.399 169.558C170.561 169.611 170.709 169.702 170.829 169.822C170.95 169.943 171.041 170.09 171.094 170.251C171.148 170.412 171.163 170.584 171.138 170.752L171.133 170.788V170.825V195.878C171.107 196.059 171.121 196.244 171.176 196.419L171.651 196.272L171.176 196.419C171.235 196.611 171.341 196.785 171.483 196.927C171.625 197.069 171.799 197.174 171.991 197.233C172.166 197.287 172.351 197.302 172.532 197.276H177.646C178.007 197.276 178.376 197.191 178.653 196.928C178.935 196.661 179.035 196.294 179.035 195.919V185.797C180.813 186.859 182.859 187.404 184.943 187.361C186.617 187.426 188.288 187.152 189.855 186.557C191.426 185.96 192.859 185.051 194.068 183.885L194.078 183.876L194.086 183.866C196.342 181.451 197.597 178.273 197.597 174.971C197.597 171.67 196.342 168.492 194.086 166.077ZM189.816 174.841L189.815 174.863L189.816 174.885C189.881 176.472 189.324 178.022 188.262 179.206C187.763 179.725 187.164 180.138 186.501 180.421C185.835 180.704 185.119 180.851 184.395 180.851C183.671 180.851 182.955 180.704 182.289 180.421C181.628 180.139 181.031 179.728 180.533 179.211C179.511 178.004 178.978 176.461 179.035 174.882L179.036 174.863L179.035 174.843C178.969 173.265 179.504 171.72 180.532 170.518C181.03 170.001 181.628 169.59 182.289 169.308C182.955 169.024 183.671 168.878 184.395 168.878C185.119 168.878 185.835 169.024 186.501 169.308C187.164 169.591 187.764 170.004 188.263 170.523C189.332 171.702 189.89 173.254 189.816 174.841Z" fill="white" stroke="#0E3278"/>
<path d="M203.434 185.392L203.434 185.392C202.407 184.775 201.532 183.935 200.875 182.934C200.218 181.934 199.795 180.798 199.637 179.612L199.633 179.579V179.546C199.633 179.203 199.689 178.816 199.953 178.523C200.228 178.218 200.622 178.128 201.022 178.128H205.532H205.542L205.552 178.129C205.858 178.141 206.155 178.237 206.41 178.406C206.665 178.576 206.869 178.813 206.998 179.091L207.005 179.105L207.01 179.12C207.543 180.485 208.956 181.28 211.576 181.28H211.587L211.599 181.281C212.458 181.32 213.315 181.147 214.091 180.778L214.101 180.774L214.101 180.774C214.312 180.679 214.493 180.528 214.625 180.338C214.754 180.153 214.831 179.937 214.849 179.713C214.846 179.437 214.762 179.224 214.603 179.04C214.433 178.843 214.15 178.654 213.71 178.488C212.583 178.115 211.419 177.867 210.238 177.749L210.231 177.748L210.231 177.748C208.765 177.583 207.311 177.324 205.878 176.973C204.407 176.64 203.07 175.876 202.039 174.778L202.027 174.765L202.015 174.752C201.404 174.001 200.954 173.133 200.694 172.202C200.433 171.27 200.367 170.295 200.5 169.338C200.633 168.38 200.963 167.459 201.468 166.634C201.973 165.809 202.642 165.096 203.435 164.54L203.444 164.533L203.454 164.527C205.747 163.07 208.436 162.359 211.15 162.49C213.771 162.406 216.363 163.054 218.634 164.362C219.583 164.898 220.401 165.639 221.027 166.531C221.653 167.423 222.073 168.443 222.254 169.517L222.261 169.559V169.601C222.261 169.972 222.178 170.343 221.925 170.624C221.663 170.915 221.3 171.019 220.933 171.019H216.405C216.12 171.032 215.836 170.961 215.59 170.814C215.339 170.664 215.14 170.442 215.018 170.177L215.014 170.169L215.011 170.161C214.757 169.555 214.279 169.069 213.676 168.804L213.66 168.797L213.645 168.789C212.907 168.404 212.083 168.213 211.251 168.234L211.231 168.234L211.211 168.233C210.396 168.189 209.583 168.351 208.847 168.705L208.829 168.713L208.81 168.721C208.617 168.795 208.451 168.925 208.334 169.094C208.219 169.259 208.155 169.453 208.149 169.654C208.167 169.96 208.281 170.252 208.475 170.49C208.672 170.733 208.942 170.905 209.246 170.983L209.272 170.99L209.297 170.999C210.44 171.429 211.628 171.728 212.838 171.89C212.838 171.89 212.838 171.89 212.839 171.89L212.772 172.385C214.207 172.574 215.63 172.839 217.036 173.181L203.434 185.392ZM203.434 185.392L203.446 185.399C205.921 186.794 208.737 187.474 211.578 187.361C214.394 187.453 217.172 186.689 219.544 185.171C220.513 184.559 221.307 183.707 221.847 182.698C222.385 181.694 222.655 180.569 222.629 179.431C222.669 178.608 222.547 177.785 222.269 177.009C221.988 176.227 221.555 175.508 220.995 174.894L220.995 174.894L220.99 174.889C219.958 173.791 218.621 173.027 217.151 172.694L203.434 185.392Z" fill="white" stroke="#0E3278"/>
<path d="M244.177 184.902C244.888 185.714 245.772 186.36 246.766 186.791C247.914 187.289 249.169 187.485 250.414 187.36C251.621 187.337 252.818 187.137 253.967 186.767C254.125 186.739 254.276 186.683 254.414 186.602C254.566 186.512 254.699 186.393 254.804 186.251C254.91 186.109 254.986 185.948 255.028 185.776C255.069 185.61 255.077 185.438 255.052 185.269L254.687 181.469C254.677 181.279 254.625 181.093 254.535 180.925C254.442 180.753 254.312 180.603 254.154 180.488C253.995 180.373 253.813 180.296 253.62 180.261C253.429 180.227 253.233 180.236 253.046 180.288C252.634 180.394 252.209 180.44 251.783 180.424L251.774 180.424H251.764C251.354 180.424 251.129 180.309 250.994 180.155C250.849 179.988 250.73 179.684 250.73 179.149V164.735C250.73 164.373 250.645 164.005 250.382 163.728C250.114 163.447 249.746 163.347 249.371 163.347H244.156C243.781 163.347 243.413 163.447 243.146 163.728C242.882 164.005 242.797 164.373 242.797 164.735V175.997V176.008L242.798 176.02C242.826 176.621 242.731 177.221 242.518 177.783C242.306 178.341 241.983 178.85 241.567 179.28C241.124 179.687 240.605 180.003 240.039 180.21C239.469 180.418 238.863 180.512 238.257 180.485L238.236 180.484L238.216 180.485C237.63 180.508 237.046 180.405 236.504 180.184C235.964 179.964 235.478 179.632 235.078 179.211C234.262 178.266 233.837 177.048 233.888 175.803L233.888 175.792V175.782V164.735C233.888 164.373 233.803 164.005 233.539 163.728C233.272 163.447 232.904 163.347 232.529 163.347H227.375C227 163.347 226.632 163.447 226.365 163.728C226.101 164.005 226.016 164.373 226.016 164.735V176.688C225.949 178.101 226.167 179.513 226.658 180.839C227.151 182.17 227.908 183.387 228.883 184.419L228.883 184.419L228.892 184.429C229.877 185.416 231.058 186.187 232.36 186.692L232.54 186.225L232.36 186.692C233.653 187.193 235.037 187.421 236.423 187.361C239.226 187.502 241.979 186.625 244.177 184.902Z" fill="white" stroke="#0E3278"/>
<path d="M281.084 165.617C280.225 164.682 279.183 163.93 278.019 163.411C276.693 162.819 275.246 162.546 273.795 162.612C272.313 162.522 270.827 162.735 269.431 163.24C268.212 163.68 267.083 164.334 266.098 165.169C265.525 164.383 264.775 163.739 263.905 163.29C262.863 162.753 261.69 162.518 260.522 162.613C259.345 162.594 258.175 162.789 257.069 163.189C256.75 163.285 256.474 163.485 256.283 163.758C256.093 164.03 256 164.358 256.019 164.69V168.285C256.019 168.658 256.157 169.007 256.479 169.24C256.771 169.452 257.149 169.519 257.532 169.519H258.544H258.58L258.616 169.514C258.786 169.489 258.958 169.504 259.12 169.558C259.283 169.611 259.43 169.702 259.551 169.822C259.671 169.943 259.762 170.089 259.816 170.251C259.869 170.412 259.884 170.584 259.859 170.752L259.854 170.788V170.825V185.239C259.854 185.6 259.939 185.968 260.203 186.245C260.47 186.526 260.838 186.626 261.213 186.626H266.187C266.371 186.644 266.557 186.622 266.733 186.562C266.92 186.498 267.089 186.392 267.229 186.253L266.876 185.899L267.229 186.253C267.368 186.114 267.474 185.944 267.539 185.758C267.599 185.582 267.621 185.396 267.603 185.211V173.946V173.933L267.602 173.919C267.538 172.733 267.942 171.568 268.728 170.675C269.113 170.281 269.577 169.971 270.089 169.767C270.606 169.561 271.16 169.466 271.715 169.488L271.725 169.489L271.735 169.489C272.248 169.489 272.754 169.602 273.218 169.819C273.68 170.036 274.088 170.35 274.414 170.741C275.176 171.716 275.561 172.932 275.501 174.166L275.5 174.179V174.191V185.211C275.482 185.396 275.504 185.582 275.564 185.758C275.629 185.944 275.735 186.114 275.874 186.253C276.014 186.392 276.183 186.498 276.37 186.562C276.546 186.622 276.732 186.644 276.917 186.626H282.074C282.449 186.626 282.817 186.526 283.085 186.245C283.348 185.968 283.433 185.6 283.433 185.239V173.946V173.935L283.433 173.924C283.38 172.743 283.754 171.582 284.486 170.652C284.811 170.272 285.219 169.969 285.678 169.768C286.141 169.565 286.643 169.469 287.148 169.488L287.168 169.489L287.189 169.488C287.759 169.463 288.328 169.564 288.854 169.784C289.378 170.003 289.846 170.335 290.227 170.756C291.034 171.706 291.45 172.924 291.392 174.168L291.391 174.179V174.191V181.378C291.376 182.244 291.575 183.101 291.97 183.872C292.366 184.644 292.947 185.307 293.661 185.802C293.661 185.802 293.662 185.802 293.662 185.803L293.947 185.392L281.084 165.617ZM281.084 165.617C282.073 164.652 283.242 163.888 284.528 163.369C285.978 162.784 287.54 162.525 289.102 162.612C290.502 162.551 291.899 162.777 293.206 163.278C294.522 163.782 295.719 164.553 296.721 165.542L296.727 165.547L296.733 165.553C297.711 166.583 298.47 167.801 298.963 169.132C299.455 170.459 299.671 171.872 299.601 173.286V179.179C299.601 179.696 299.718 179.994 299.861 180.159C299.994 180.312 300.214 180.424 300.604 180.424H300.615L300.627 180.424C301.051 180.444 301.475 180.398 301.885 180.288L301.949 180.271H302.015C302.386 180.271 302.749 180.34 303.037 180.549C303.345 180.773 303.495 181.102 303.526 181.463L303.526 181.469L303.799 185.257C303.834 185.424 303.835 185.596 303.801 185.763C303.765 185.946 303.688 186.119 303.576 186.269C303.465 186.419 303.321 186.543 303.157 186.631C303.014 186.707 302.857 186.755 302.696 186.773C301.529 187.145 300.312 187.344 299.086 187.36L281.084 165.617Z" fill="white" stroke="#0E3278"/>
<path d="M149.97 89.3808L149.822 89.9976H150.456H152.829V89.9977L152.837 89.9976C156.729 89.9382 160.543 91.1418 163.744 93.442C163.95 93.5955 164.164 93.7359 164.386 93.8623L164.501 93.9277H164.633H164.91H165.042L165.157 93.8623C165.379 93.7366 165.592 93.5969 165.796 93.4443C169.029 91.196 172.833 89.9964 176.724 89.9964C180.616 89.9964 184.42 91.196 187.653 93.4443C187.857 93.5969 188.07 93.7366 188.291 93.8623L188.406 93.9277H188.539H188.815H188.948L189.063 93.8623C189.285 93.7359 189.499 93.5955 189.704 93.442C192.905 91.1418 196.72 89.9382 200.612 89.9976V89.9976H200.62H202.992H203.627L203.479 89.3808C201.995 83.2062 198.557 77.7198 193.71 73.797C188.862 69.8739 182.883 67.7409 176.724 67.7409C170.566 67.7409 164.587 69.8739 159.739 73.797C154.892 77.7198 151.454 83.2062 149.97 89.3808ZM196.641 102.737L196.652 102.73L196.663 102.721C197.789 101.813 199.183 101.339 200.606 101.378L200.606 101.378H200.62H203.803H204.303V100.878V94.3079V93.8079H203.803H200.623C197.794 93.7732 195.031 94.6853 192.746 96.4057L192.743 96.4077C191.592 97.2863 190.202 97.7587 188.776 97.7587C187.35 97.7587 185.96 97.2863 184.808 96.4077L184.808 96.4075L184.797 96.3995C182.459 94.7144 179.676 93.8098 176.823 93.8098C173.97 93.8098 171.188 94.7144 168.849 96.3995L168.849 96.3993L168.838 96.4077C167.687 97.2863 166.297 97.7587 164.871 97.7587C163.445 97.7587 162.054 97.2863 160.903 96.4076L160.901 96.4058C158.588 94.6637 155.787 93.7504 152.923 93.8079H149.646H149.146V94.3079V100.878V101.378H149.646H152.829V101.379L152.843 101.378C154.266 101.339 155.659 101.813 156.786 102.721L156.796 102.729L156.807 102.737C159.142 104.423 161.922 105.329 164.772 105.329C167.622 105.329 170.402 104.423 172.736 102.737L172.747 102.73L172.757 102.722C173.885 101.816 175.279 101.342 176.702 101.378L176.716 101.379L176.729 101.378C178.152 101.336 179.546 101.81 180.671 102.72L180.682 102.729L180.693 102.737C183.031 104.423 185.814 105.327 188.667 105.327C191.52 105.327 194.303 104.423 196.641 102.737ZM196.641 114.487L196.652 114.479L196.663 114.47C197.789 113.562 199.183 113.089 200.606 113.128L200.606 113.128H200.62H203.803H204.303V112.628V106.057V105.557H203.803H200.623C197.794 105.522 195.031 106.435 192.746 108.155L192.743 108.157C191.592 109.036 190.202 109.508 188.776 109.508C187.35 109.508 185.96 109.036 184.808 108.157L184.808 108.157L184.797 108.149C182.459 106.464 179.676 105.559 176.823 105.559C173.97 105.559 171.188 106.464 168.849 108.149L168.849 108.149L168.838 108.157C167.687 109.036 166.297 109.508 164.871 109.508C163.445 109.508 162.054 109.036 160.903 108.157L160.901 108.155C158.588 106.413 155.787 105.5 152.923 105.557H149.646H149.146V106.057V112.628V113.128H149.646H152.829V113.128L152.843 113.128C154.266 113.089 155.659 113.562 156.786 114.47L156.796 114.479L156.807 114.486C159.142 116.173 161.922 117.078 164.772 117.078C167.622 117.078 170.402 116.173 172.736 114.486L172.747 114.479L172.757 114.471C173.885 113.565 175.279 113.092 176.702 113.128L176.716 113.128L176.729 113.128C178.152 113.085 179.546 113.559 180.671 114.47L180.682 114.479L180.693 114.487C183.031 116.172 185.814 117.076 188.667 117.076C191.52 117.076 194.303 116.172 196.641 114.487Z" fill="white" stroke="#0E3278"/>
<defs>
<radialGradient id="paint0_radial" cx="0" cy="0" r="1" gradientUnits="userSpaceOnUse" gradientTransform="translate(177.071 92.7534) scale(43.4316 43.259)">
<stop stop-color="#69ADE5"/>
<stop offset="1" stop-color="#0062A4"/>
</radialGradient>
</defs>
</svg>
