<svg width="40" height="40" viewBox="0 0 40 40" fill="none" xmlns="http://www.w3.org/2000/svg">
<path d="M24.7167 18.8167L17.65 11.75C17.4951 11.5938 17.3108 11.4698 17.1077 11.3852C16.9046 11.3006 16.6867 11.257 16.4667 11.257C16.2467 11.257 16.0288 11.3006 15.8257 11.3852C15.6226 11.4698 15.4383 11.5938 15.2834 11.75C14.9729 12.0623 14.7987 12.4847 14.7987 12.925C14.7987 13.3653 14.9729 13.7877 15.2834 14.1L21.1834 20L15.2834 25.9C14.9729 26.2123 14.7987 26.6347 14.7987 27.075C14.7987 27.5153 14.9729 27.9377 15.2834 28.25C15.4391 28.4045 15.6238 28.5267 15.8268 28.6096C16.0299 28.6926 16.2473 28.7346 16.4667 28.7333C16.686 28.7346 16.9035 28.6926 17.1065 28.6096C17.3096 28.5267 17.4943 28.4045 17.65 28.25L24.7167 21.1833C24.8729 21.0284 24.9969 20.8441 25.0815 20.641C25.1661 20.4379 25.2097 20.22 25.2097 20C25.2097 19.78 25.1661 19.5622 25.0815 19.3591C24.9969 19.156 24.8729 18.9716 24.7167 18.8167Z" fill="#6CADD5"/>
</svg>
